# xmcd
#
# Track frame offsets: 
#        150
#        20319
#        36398
#        55288
#        77043
#        96328
#        108290
#        124264
#        134366
#        150579
#        170604
#
# Disc length: 2499 seconds
#
# Revision: 2
# Processed by: cddbd v1.5.2PL0 Copyright (c) Steve Scherf et al.
# Submitted via: ExactAudioCopy v0.99pb4
#
DISCID=8e09c10b
DTITLE=Keith Cooper - Sacred Dance
DYEAR=2005
DGENRE=Blues
TTITLE0=Presider's Chair
TTITLE1=Sacred Dance
TTITLE2=Turn Your Eyes Upon Jesus
TTITLE3=Bond Of Perfection 
TTITLE4=The Old Rugged Cross
TTITLE5=Wind Chasex
TTITLE6=Cloud Burst
TTITLE7=Fairest Lord Jesus
TTITLE8=G Minor Guitar Fantasy
TTITLE9=Amazing Grace
TTITLE10=Keeper Of The Flame
EXTD=
EXTT0=
EXTT1=
EXTT2=
EXTT3=
EXTT4=
EXTT5=
EXTT6=
EXTT7=
EXTT8=
EXTT9=
EXTT10=
PLAYORDER=
